# xmcd
# Copyright (c) 1998 CDDB Inc.
#
# Track frame offsets:
#	185
#	23975
#	41140
#	54433
#	72863
#	93345
#	116078
#	129463
#	145285
#	163825
#	197015
#	227338
#	248360
#	273638
#
# Disc length: 4018 seconds
#
# Revision: 1
# Processed by: cddbd v1.4b41PL1 Copyright (c) Steve Scherf et al.
# Submitted via: audiograbber 1.70
#
DISCID=c20fb00e
DTITLE=John Lennon - Sometime in New York City
DYEAR=1900
DGENRE=
TTITLE0=Woman is the nigger of the wolrd
TTITLE1=Sisters, o sisters
TTITLE2=Attica State
TTITLE3=Born in a prison
TTITLE4=New York City
TTITLE5=Sunday bloody sunday
TTITLE6=The luck of the irish
TTITLE7=John Sinclair
TTITLE8=Angela
TTITLE9=We're all water
TTITLE10=Cold turkey (live)
TTITLE11=Well (live)
TTITLE12=Jamrag (live)
TTITLE13=Scumbag (live)
EXTD=
EXTT0=
EXTT1=
EXTT2=
EXTT3=
EXTT4=
EXTT5=
EXTT6=
EXTT7=
EXTT8=
EXTT9=
EXTT10=
EXTT11=
EXTT12=
EXTT13=
PLAYORDER=
